<?xml version="1.0" encoding="UTF-8"?>
<svg width="48px" height="48px" viewBox="0 0 48 48" version="1.1" xmlns="http://www.w3.org/2000/svg" xmlns:xlink="http://www.w3.org/1999/xlink">
    <!-- Generator: Sketch 55.2 (78181) - https://sketchapp.com -->
    <title>Icon/48/Easter-island</title>
    <desc>Created with Sketch.</desc>
    <g id="Icon/48/Easter-island" stroke="none" stroke-width="1" fill="none" fill-rule="evenodd">
        <g id="Group" transform="translate(3.000000, 7.000000)" fill="#FFFFFF" fill-rule="nonzero">
            <g id="noun_Moai_56677" transform="translate(12.250000, 2.625000)">
                <path d="M12.4312822,20.3080339 C11.8133897,18.698007 10.6187976,18.923525 10.6187976,18.923525 L9.88909608,17.0337417 C9.37124335,17.4219751 8.13840079,18.2869363 6.49362993,19.0719672 C4.99891866,19.7856315 2.82452569,19.9083818 1.45339292,19.9026725 L1.94182219,21.7267987 C1.94182219,21.7267987 1.55637499,22.3262768 0.591285828,25.3179579 C6.68488236,31.977874 13.1227332,24.0447806 13.1227332,24.0447806 C13.1227332,24.0447806 13.0491746,21.9152061 12.4312822,20.3080339 Z" id="Path"></path>
                <path d="M6.49362993,18.698007 C8.13840079,17.9129762 9.37124335,17.0480149 9.88909608,16.6597815 C10.0626944,16.5284673 10.1568495,16.4542462 10.1568495,16.4542462 C10.1568495,16.4542462 10.5040462,15.1068478 10.1568495,13.4225998 C10.1568495,13.4225998 11.1601891,13.9849674 11.5838868,11.4386128 C12.0075845,8.89511295 13.0491746,0.887798501 11.3131911,1.150427 C10.9659944,-0.645152608 6.33768564,-0.157006166 5.0665926,1.60146289 C4.46635421,2.42931358 4.05442591,3.09159414 3.78961486,3.55975798 C4.81943562,3.21719907 6.91144292,2.81469235 7.78531939,2.81469235 C8.99756554,2.81469235 10.2392351,4.61598127 10.3775254,4.82151662 L10.5864318,5.13267429 L10.2304081,5.26398854 L7.41458392,6.31164786 L7.05561783,6.44581677 L6.99971327,6.07756594 C6.99971327,6.07471129 6.94086637,5.71502443 6.79669147,5.21831402 C6.6613436,4.76156881 6.10229804,4.71303963 5.86985279,4.71303963 L5.86985279,4.71303963 C5.80217885,4.71303963 5.73156257,4.71589429 5.66094629,4.72445826 C5.36671179,4.75300484 5.07836198,5.54659964 4.92536004,5.97194361 C4.79589686,6.32877581 4.69291478,6.60853225 4.55462456,6.76839307 C4.38102621,6.9682191 4.10738812,7.09382403 3.73959499,7.14235321 L3.44830284,7.17946376 L0.99732944,10.453756 L1.00909882,10.46232 C1.08559979,10.5222678 1.23860173,10.5993435 1.5240092,10.6136168 C1.5828561,10.6164715 1.64464534,10.6193261 1.70643459,10.6193261 C2.12424758,10.6193261 2.59502278,10.5479597 3.04814392,10.4794479 C3.24528103,10.4509013 3.44536049,10.4195001 3.64543995,10.3938082 L3.68074809,10.3880989 L3.71605623,10.3909535 C3.73076796,10.3938082 4.08973405,10.4280641 4.4722389,10.545105 C5.05482322,10.7249484 5.39613524,11.0018502 5.48734793,11.3643917 C5.55796421,11.6441482 5.505002,12.0637828 4.86357079,12.4834175 C4.46046952,12.746046 3.95144384,12.9258894 3.68369044,13.0115292 C3.4983227,13.0686223 3.25999276,13.154262 3.00400874,13.254175 C3.49538036,13.2912856 4.00440605,13.4597104 4.51931642,13.7594494 L5.82277527,14.521643 L4.31629462,14.3103983 C4.30746758,14.3103983 3.51891912,14.1990667 2.73625534,14.1990667 C2.03303489,14.1990667 1.69760755,14.2847064 1.54166327,14.3589275 L1.03263758,14.5930094 L1.06206103,14.6501026 C1.06206103,14.6501026 1.02381055,16.7083107 0.600112863,17.6817489 C0.176415181,18.6551871 -0.209032016,19.440218 0.214665666,19.4773285 C0.350013537,19.4887472 0.817846394,19.5201484 1.46221995,19.523003 C2.82452569,19.5344217 4.99891866,19.4116714 6.49362993,18.698007 Z" id="Path"></path>
                <path d="M4.31335227,6.57713102 C4.6222985,6.22029882 4.89299424,4.50179497 5.62563815,4.42471922 C5.66977332,4.4190099 5.71096616,4.41615524 5.75510133,4.41615524 C5.76981306,4.41615524 5.78158244,4.41615524 5.79629416,4.41615524 C5.81983292,4.41615524 5.84337168,4.41330059 5.86691044,4.41330059 C5.87279513,4.41330059 5.87573748,4.41330059 5.88162217,4.41330059 C5.89633389,4.41330059 5.91104562,4.41330059 5.92869969,4.41330059 C5.95518079,4.41330059 5.97871955,4.41615524 6.00520066,4.41615524 C6.01991238,4.41615524 6.03756645,4.4190099 6.05227818,4.4190099 C6.07581694,4.42186456 6.0993557,4.42471922 6.12289446,4.42757387 C6.13760618,4.43042853 6.15526025,4.43042853 6.16997198,4.43328319 C6.19351074,4.43613785 6.21410715,4.44184716 6.23764591,4.44470182 C6.25235764,4.44755648 6.26706936,4.45041113 6.28178109,4.45326579 C6.30531985,4.45897511 6.32591626,4.46468442 6.34651268,4.47039374 C6.3612244,4.47324839 6.37299378,4.47610305 6.38770551,4.48181237 C6.41124427,4.48752168 6.43184068,4.49608566 6.45537944,4.50464963 C6.46714882,4.50750429 6.47597586,4.5132136 6.48774524,4.51606826 C6.51716869,4.52748689 6.54659214,4.53890552 6.57601559,4.55317881 C6.57895793,4.55317881 6.57895793,4.55603346 6.58190028,4.55603346 C6.61132373,4.57030675 6.64074718,4.5874347 6.67017063,4.60170798 C6.67899767,4.6074173 6.6878247,4.61312661 6.69370939,4.61598127 C6.71430581,4.6273999 6.73195988,4.63881853 6.74961395,4.65309182 C6.75844098,4.65880114 6.76726802,4.66736511 6.7790374,4.67592908 C6.79374912,4.68734771 6.81140319,4.701621 6.82611492,4.71303963 C6.83494195,4.7216036 6.84376899,4.73016757 6.85259602,4.73873155 C6.86730775,4.75300484 6.87907713,4.76442347 6.89084651,4.77869675 C6.89967354,4.78726073 6.90850058,4.79867936 6.91732761,4.80724333 C6.92909699,4.82151662 6.94086637,4.8357899 6.95263575,4.85006319 C6.96146279,4.86148182 6.96734748,4.8700458 6.97617451,4.88146443 C6.98794389,4.89573771 6.99677093,4.91286566 7.00559796,4.9299936 C7.01148265,4.94141223 7.01736734,4.94997621 7.02325203,4.96139484 C7.03207907,4.97852278 7.0409061,4.99850539 7.04973314,5.01848799 C7.05267548,5.02705196 7.05856017,5.03561593 7.06150252,5.04703456 C7.0732719,5.07558114 7.08504128,5.10698237 7.09386831,5.13838361 C7.24687025,5.66078594 7.30571715,6.03760074 7.30571715,6.03760074 L10.1215413,4.98994141 C10.1215413,4.98994141 8.86810236,3.12014071 7.78826174,3.12014071 C6.83494195,3.12014071 4.31629462,3.63112441 3.56893898,3.96797401 C3.43064877,4.23345716 3.37180187,4.37333538 3.37180187,4.37333538 C3.37180187,4.37333538 3.02460516,4.71018497 3.2953009,5.4952158 C3.56599664,6.28024663 3.75724906,6.76839307 3.75724906,6.76839307 L3.69545982,6.85117814 C3.9161357,6.81692225 4.16917737,6.74555581 4.31335227,6.57713102 Z" id="Path"></path>
                <path d="M5.18134405,11.4414675 C5.02834211,10.8248615 3.67780575,10.6935472 3.67780575,10.6935472 C3.60130478,10.7021112 3.52186146,10.7135298 3.44241815,10.7249484 C3.43359111,10.7249484 3.42476408,10.7278031 3.41593704,10.7278031 C3.33943607,10.7392217 3.2629351,10.7506404 3.18643413,10.762059 C3.10993316,10.7734776 3.03048985,10.7848963 2.95398888,10.7963149 C2.93927715,10.7991695 2.92456543,10.8020242 2.9098537,10.8020242 C2.83335273,10.8134428 2.7597941,10.8248615 2.68329313,10.8362801 C2.6744661,10.8362801 2.66563906,10.8391348 2.65386968,10.8391348 C2.57736871,10.8505534 2.4979254,10.8591174 2.42142443,10.870536 C2.41848208,10.870536 2.41848208,10.870536 2.41553974,10.870536 C2.33903877,10.8791 2.26548014,10.8876639 2.19192152,10.8933732 C2.18309448,10.8933732 2.17426745,10.8962279 2.16838276,10.8962279 C2.09776648,10.9019372 2.02420785,10.9076465 1.95359157,10.9105012 C1.94182219,10.9105012 1.93005281,10.9105012 1.91828343,10.9133558 C1.84766715,10.9162105 1.77999321,10.9190652 1.71231928,10.9190652 C1.70643459,10.9190652 1.7005499,10.9190652 1.69466521,10.9190652 C1.68878052,10.9190652 1.67995348,10.9190652 1.67406879,10.9190652 C1.61522189,10.9190652 1.55343265,10.9162105 1.49458575,10.9133558 C1.13561966,10.8933732 0.923770815,10.7877509 0.806077014,10.6935472 L0.782538254,10.7249484 L2.1713251,12.5947491 C2.1713251,12.5947491 1.90062936,13.0800409 1.59168313,13.3055589 C1.45633526,13.4026172 1.30039098,13.6024433 1.16504311,13.7937053 C1.74762742,13.4111812 2.98046998,12.9144708 3.57482367,12.7260634 C4.2368513,12.5262374 5.33728834,12.0580735 5.18134405,11.4414675 Z" id="Path"></path>
                <path d="M1.49752809,14.0591885 C1.51518216,14.0534792 1.53577858,14.0449152 1.55343265,14.0392059 C1.56225968,14.0363512 1.57108672,14.0334966 1.57991375,14.0306419 C1.60345251,14.0249326 1.62404893,14.0163686 1.64758769,14.0106593 C1.65347238,14.0078046 1.65935707,14.0078046 1.66524176,14.00495 C1.69466521,13.996386 1.72408866,13.9906767 1.75351211,13.9849674 C1.76233914,13.9821127 1.77116618,13.9821127 1.77999321,13.9792581 C1.80353197,13.9735488 1.82707073,13.9706941 1.85060949,13.9678394 C1.86237887,13.9649848 1.87120591,13.9649848 1.88297529,13.9621301 C1.90651405,13.9592755 1.93005281,13.9535661 1.95653392,13.9507115 C1.96536095,13.9507115 1.97418799,13.9478568 1.98301502,13.9478568 C2.01538082,13.9421475 2.05068896,13.9392929 2.08305475,13.9364382 C2.09188179,13.9364382 2.09776648,13.9364382 2.10659351,13.9335835 C2.13307462,13.9307289 2.16249807,13.9278742 2.18897917,13.9250196 C2.20074855,13.9250196 2.21251793,13.9221649 2.22428731,13.9221649 C2.25076842,13.9193103 2.27430718,13.9193103 2.30078828,13.9164556 C2.31255766,13.9164556 2.32432704,13.9164556 2.33609642,13.9136009 C2.37140456,13.9107463 2.40965505,13.9107463 2.44496319,13.9078916 L2.44496319,13.9078916 C2.48321367,13.9078916 2.51852181,13.905037 2.5567723,13.905037 C2.56854168,13.905037 2.58031106,13.905037 2.59208044,13.905037 C2.61856154,13.905037 2.64504265,13.905037 2.67152375,13.905037 C2.68329313,13.905037 2.69506251,13.905037 2.70683189,13.905037 C2.71565893,13.905037 2.72154362,13.905037 2.73037065,13.905037 C2.75685176,13.905037 2.78627521,13.905037 2.81275631,13.905037 C2.81569866,13.905037 2.82158335,13.905037 2.82452569,13.905037 C2.85983383,13.905037 2.89219963,13.905037 2.92750777,13.9078916 C2.93339246,13.9078916 2.93927715,13.9078916 2.94516184,13.9078916 C2.98046998,13.9078916 3.01577812,13.9107463 3.05108626,13.9107463 C3.05697095,13.9107463 3.06579799,13.9107463 3.07168268,13.9107463 C3.1452413,13.9136009 3.21585758,13.9164556 3.28647386,13.9193103 C3.29235855,13.9193103 3.29824324,13.9193103 3.30412793,13.9193103 C3.33943607,13.9221649 3.37180187,13.9221649 3.40711001,13.9250196 C3.41005235,13.9250196 3.41593704,13.9250196 3.41887939,13.9250196 C3.45124518,13.9278742 3.48361098,13.9278742 3.51597677,13.9307289 C3.51891912,13.9307289 3.52186146,13.9307289 3.52480381,13.9307289 C3.5571696,13.9335835 3.5895354,13.9364382 3.62190119,13.9392929 C3.62778588,13.9392929 3.63367057,13.9392929 3.63661292,13.9392929 C3.66897871,13.9421475 3.69840216,13.9450022 3.72782561,13.9478568 C3.73076796,13.9478568 3.7337103,13.9478568 3.7337103,13.9478568 C3.76313375,13.9507115 3.78961486,13.9535661 3.81903831,13.9564208 C3.82198066,13.9564208 3.824923,13.9564208 3.83080769,13.9564208 C3.8572888,13.9592755 3.88671225,13.9621301 3.91025101,13.9649848 C3.9161357,13.9649848 3.91907804,13.9649848 3.92496273,13.9678394 C3.97792494,13.9735488 4.02500246,13.9792581 4.06913764,13.9821127 C4.07207998,13.9821127 4.07796467,13.9821127 4.08090702,13.9821127 C4.10150343,13.9849674 4.12209985,13.987822 4.14269626,13.987822 C4.14563861,13.987822 4.14563861,13.987822 4.14858095,13.987822 C4.16623502,13.9906767 4.18388909,13.9906767 4.19860082,13.9935314 C4.20154316,13.9935314 4.20154316,13.9935314 4.20448551,13.9935314 C4.22213958,13.996386 4.2368513,13.996386 4.25156303,13.9992407 C4.25450537,13.9992407 4.25450537,13.9992407 4.25744772,13.9992407 C4.27215944,14.0020953 4.28392882,14.0020953 4.29275586,14.00495 L4.2956982,14.00495 C4.30452524,14.00495 4.31335227,14.0078046 4.32217931,14.0078046 L4.32217931,14.0078046 C4.328064,14.0078046 4.33394869,14.0106593 4.33689103,14.0106593 C4.33983338,14.0106593 4.33983338,14.0106593 4.34277572,14.0106593 C4.34571807,14.0106593 4.34571807,14.0106593 4.34571807,14.0106593 C4.28098648,13.9735488 4.21625489,13.9364382 4.1515233,13.905037 C4.14563861,13.9021823 4.13975392,13.8993277 4.13092688,13.8936183 C4.06913764,13.8622171 4.01029074,13.8336705 3.94850149,13.8079786 C3.93967446,13.805124 3.93084742,13.7994146 3.92202039,13.79656 C3.86317349,13.7708681 3.80432659,13.7480308 3.74842203,13.7251935 C3.73959499,13.7223389 3.72782561,13.7166296 3.71899858,13.7137749 C3.66015168,13.6937923 3.60424712,13.6738097 3.54834257,13.6566818 C3.53951553,13.6538271 3.5306885,13.6509724 3.52186146,13.6481178 C3.46301456,13.6309898 3.40711001,13.6167166 3.35120545,13.6024433 C3.34532076,13.6024433 3.33943607,13.5995886 3.33355138,13.5995886 C3.27470448,13.5853153 3.21585758,13.5767513 3.15701068,13.5653327 L3.15701068,13.5653327 C3.09816378,13.5567687 3.04225923,13.5510594 2.98635467,13.5453501 C2.98046998,13.5453501 2.97458529,13.5453501 2.97164295,13.5424955 C2.91868074,13.5396408 2.86571852,13.5367861 2.81275631,13.5367861 C2.80392928,13.5367861 2.79510224,13.5367861 2.78333286,13.5367861 C2.76273645,13.5367861 2.74508238,13.5367861 2.72448596,13.5367861 C2.70977424,13.5367861 2.69800486,13.5367861 2.68329313,13.5396408 C2.66269672,13.5396408 2.6421003,13.5424955 2.62444623,13.5424955 C2.61267685,13.5424955 2.59796513,13.5453501 2.58619575,13.5453501 C2.56559933,13.5482048 2.54206057,13.5510594 2.52146416,13.5539141 C2.51263712,13.5539141 2.50086774,13.5567687 2.49204071,13.5567687 C2.45967491,13.5624781 2.43025146,13.5653327 2.39788567,13.571042 C2.39494332,13.571042 2.39200098,13.571042 2.38905863,13.5738967 C2.36257753,13.579606 2.33315408,13.5853153 2.30667297,13.5910246 C2.29490359,13.5938793 2.28607656,13.596734 2.27430718,13.5995886 C2.25371076,13.6052979 2.23605669,13.6110072 2.21546028,13.6138619 C2.2036909,13.6167166 2.19192152,13.6224259 2.18015214,13.6252805 C2.16249807,13.6309898 2.144844,13.6366992 2.12718993,13.6424085 C2.11542055,13.6452631 2.10365117,13.6509724 2.08893944,13.6566818 C2.07128537,13.6623911 2.05657365,13.6681004 2.03891958,13.6738097 C2.0271502,13.679519 2.01538082,13.6823737 2.00066909,13.688083 C1.98595737,13.6937923 1.9683033,13.7023563 1.95359157,13.7080656 C1.94182219,13.7137749 1.93005281,13.7194842 1.91828343,13.7251935 C1.9035717,13.7337575 1.88885998,13.7394668 1.87414825,13.7480308 C1.86237887,13.7537401 1.85060949,13.7594494 1.83884011,13.7651587 C1.82412839,13.7737227 1.80941666,13.7822867 1.79470494,13.787996 C1.78293556,13.7937053 1.77116618,13.8022693 1.7593968,13.8079786 C1.74468507,13.8165426 1.72997335,13.8251066 1.71526162,13.8336705 C1.70349224,13.8393798 1.69172286,13.8479438 1.68289583,13.8536531 C1.6681841,13.8622171 1.65347238,13.8736357 1.63876065,13.8821997 C1.62699127,13.8907637 1.61816424,13.896473 1.60639486,13.905037 C1.59168313,13.9164556 1.57697141,13.9278742 1.56225968,13.9364382 C1.55343265,13.9450022 1.54460561,13.9507115 1.53283623,13.9592755 C1.51812451,13.9706941 1.50047044,13.9849674 1.48575871,13.996386 C1.47693168,14.0020953 1.47104699,14.0078046 1.46221995,14.0163686 C1.43868119,14.0363512 1.41808478,14.0563338 1.39454602,14.0763164 C1.41808478,14.0648978 1.44162354,14.0563338 1.46810464,14.0449152 C1.48281637,14.0620431 1.4916434,14.0620431 1.49752809,14.0591885 Z" id="Path"></path>
            </g>
            <g id="noun_Moai_56677" transform="translate(0.000000, 5.250000)">
                <path d="M9.94502574,17.1349036 C9.45071177,15.7764434 8.49503811,15.9667242 8.49503811,15.9667242 L7.91127686,14.3722195 C7.49699468,14.6997915 6.51072063,15.4296025 5.19490394,16.0919723 C3.99913493,16.6941266 2.25962056,16.7976972 1.16271433,16.7928799 L1.55345775,18.3319864 C1.55345775,18.3319864 1.24509999,18.837796 0.473028662,21.362027 C5.34790588,26.9813312 10.4981866,20.2877836 10.4981866,20.2877836 C10.4981866,20.2877836 10.4393397,18.4909551 9.94502574,17.1349036 Z" id="Path"></path>
                <path d="M5.19490394,15.7764434 C6.51072063,15.1140737 7.49699468,14.3842626 7.91127686,14.0566907 C8.05015555,13.9458943 8.12547958,13.8832702 8.12547958,13.8832702 C8.12547958,13.8832702 8.40323695,12.7464028 8.12547958,11.3253186 C8.12547958,11.3253186 8.9281513,11.7998162 9.26710945,9.65132958 C9.60606759,7.50525155 10.4393397,0.749079985 9.05055285,0.970672778 C8.77279548,-0.544347513 5.07014851,-0.132473952 4.05327408,1.35123431 C3.57308337,2.04973334 3.24354073,2.60853255 3.03169189,3.00354579 C3.85554849,2.71451171 5.52915434,2.37489667 6.22825551,2.37489667 C7.19805243,2.37489667 8.19138811,3.8947342 8.30202028,4.06815465 L8.46914548,4.33069393 L8.18432648,4.44149033 L5.93166714,5.32545288 L5.64449426,5.4386579 L5.59977062,5.12794626 C5.59977062,5.12553765 5.5526931,4.82205187 5.43735317,4.40295245 C5.32907488,4.01757368 4.88183843,3.97662719 4.69588223,3.97662719 L4.69588223,3.97662719 C4.64174308,3.97662719 4.58525006,3.9790358 4.52875703,3.98626166 C4.29336943,4.01034783 4.06268958,4.67994344 3.94028803,5.03882742 C3.83671748,5.33990459 3.75433182,5.57594908 3.64369965,5.71083165 C3.50482097,5.87943487 3.2859105,5.98541403 2.991676,6.02636052 L2.75864227,6.05767255 L0.797863552,8.82035661 L0.807279056,8.82758246 C0.868479832,8.87816342 0.990881385,8.94319609 1.21920736,8.95523918 C1.26628488,8.9576478 1.31571627,8.96005641 1.36514767,8.96005641 C1.69939806,8.96005641 2.07601823,8.89984098 2.43851513,8.84203416 C2.59622483,8.81794799 2.75628839,8.7914532 2.91635196,8.76977564 L2.94459848,8.76495841 L2.97284499,8.76736703 C2.98461437,8.76977564 3.27178724,8.79867905 3.57779112,8.89743236 C4.04385857,9.04917525 4.31690819,9.28281113 4.38987835,9.58870553 C4.44637137,9.82475003 4.4040016,10.1788168 3.89085663,10.5328835 C3.56837562,10.7544763 3.16115507,10.9062192 2.94695235,10.9784777 C2.79865816,11.0266501 2.60799421,11.0989086 2.40320699,11.1832102 C2.79630429,11.2145222 3.20352484,11.3566306 3.61545314,11.6095355 L4.65822021,12.2526363 L3.45303569,12.0743986 C3.44597407,12.0743986 2.81513529,11.9804625 2.18900428,11.9804625 C1.62642791,11.9804625 1.35808604,12.052721 1.23333061,12.1153451 L0.826110064,12.3128517 L0.849648824,12.3610241 C0.849648824,12.3610241 0.819048436,14.0976371 0.48009029,14.9189757 C0.141132144,15.7403142 -0.167225613,16.4026839 0.171732533,16.4339959 C0.280010829,16.4436304 0.654277115,16.4701252 1.16977596,16.4725338 C2.25962056,16.4821683 3.99913493,16.3785977 5.19490394,15.7764434 Z" id="Path"></path>
                <path d="M3.45068182,5.54945429 C3.6978388,5.24837713 3.91439539,3.79838951 4.50051052,3.73335684 C4.53581866,3.7285396 4.56877292,3.72613099 4.60408106,3.72613099 C4.61585044,3.72613099 4.62526595,3.72613099 4.63703533,3.72613099 C4.65586634,3.72613099 4.67469734,3.72372237 4.69352835,3.72372237 C4.6982361,3.72372237 4.70058998,3.72372237 4.70529773,3.72372237 C4.71706711,3.72372237 4.72883649,3.72372237 4.74295975,3.72372237 C4.76414463,3.72372237 4.78297564,3.72613099 4.80416053,3.72613099 C4.81592991,3.72613099 4.83005316,3.7285396 4.84182254,3.7285396 C4.86065355,3.73094822 4.87948456,3.73335684 4.89831557,3.73576546 C4.91008495,3.73817407 4.9242082,3.73817407 4.93597758,3.74058269 C4.95480859,3.74299131 4.97128572,3.74780854 4.99011673,3.75021716 C5.00188611,3.75262578 5.01365549,3.75503439 5.02542487,3.75744301 C5.04425588,3.76226025 5.06073301,3.76707748 5.07721014,3.77189472 C5.08897952,3.77430333 5.09839503,3.77671195 5.11016441,3.78152918 C5.12899542,3.78634642 5.14547255,3.79357227 5.16430356,3.80079812 C5.17371906,3.80320674 5.18078069,3.80802398 5.19019619,3.81043259 C5.21373495,3.82006706 5.23727371,3.82970153 5.26081247,3.84174462 C5.26316635,3.84174462 5.26316635,3.84415324 5.26552022,3.84415324 C5.28905898,3.85619632 5.31259774,3.87064803 5.3361365,3.88269111 C5.34319813,3.88750835 5.35025976,3.89232558 5.35496751,3.8947342 C5.37144464,3.90436867 5.3855679,3.91400314 5.39969116,3.92604622 C5.40675278,3.93086346 5.41381441,3.93808931 5.42322992,3.94531516 C5.4349993,3.95494963 5.44912255,3.96699272 5.46089193,3.97662719 C5.46795356,3.98385304 5.47501519,3.99107889 5.48207682,3.99830474 C5.4938462,4.01034783 5.5032617,4.0199823 5.51267721,4.03202539 C5.51973883,4.03925124 5.52680046,4.04888571 5.53386209,4.05611156 C5.54327759,4.06815465 5.5526931,4.08019773 5.5621086,4.09224082 C5.56917023,4.10187529 5.57387798,4.10910114 5.58093961,4.11873561 C5.59035511,4.1307787 5.59741674,4.1452304 5.60447837,4.1596821 C5.60918612,4.16931657 5.61389387,4.17654242 5.61860163,4.18617689 C5.62566325,4.2006286 5.63272488,4.21748892 5.63978651,4.23434924 C5.64214039,4.24157509 5.64684814,4.24880094 5.64920201,4.25843541 C5.65861752,4.28252159 5.66803302,4.30901638 5.67509465,4.33551117 C5.7974962,4.77628814 5.84457372,5.09422562 5.84457372,5.09422562 L8.09723307,4.21026307 C8.09723307,4.21026307 7.09448189,2.63261873 6.23060939,2.63261873 C5.46795356,2.63261873 3.45303569,3.06376122 2.85515119,3.34797807 C2.74451901,3.57197948 2.69744149,3.69000173 2.69744149,3.69000173 C2.69744149,3.69000173 2.41968412,3.97421857 2.63624072,4.63658833 C2.85279731,5.29895809 3.00579925,5.71083165 3.00579925,5.71083165 L2.95636786,5.78068156 C3.13290856,5.75177815 3.33534189,5.69156272 3.45068182,5.54945429 Z" id="Path"></path>
                <path d="M4.14507524,9.6537382 C4.02267369,9.13347686 2.9422446,9.02268046 2.9422446,9.02268046 C2.88104382,9.02990631 2.81748917,9.03954078 2.75393452,9.04917525 C2.74687289,9.04917525 2.73981126,9.05158387 2.73274963,9.05158387 C2.67154886,9.06121834 2.61034808,9.07085281 2.54914731,9.08048728 C2.48794653,9.09012175 2.42439188,9.09975622 2.3631911,9.10939069 C2.35142172,9.1117993 2.33965234,9.11420792 2.32788296,9.11420792 C2.26668218,9.12384239 2.20783528,9.13347686 2.14663451,9.14311133 C2.13957288,9.14311133 2.13251125,9.14551995 2.12309575,9.14551995 C2.06189497,9.15515442 1.99834032,9.16238027 1.93713954,9.17201474 C1.93478567,9.17201474 1.93478567,9.17201474 1.93243179,9.17201474 C1.87123101,9.17924059 1.81238411,9.18646644 1.75353721,9.19128367 C1.74647559,9.19128367 1.73941396,9.19369229 1.7347062,9.19369229 C1.67821318,9.19850953 1.61936628,9.20332676 1.56287326,9.20573538 C1.55345775,9.20573538 1.54404225,9.20573538 1.53462674,9.208144 C1.47813372,9.21055261 1.42399457,9.21296123 1.36985542,9.21296123 C1.36514767,9.21296123 1.36043992,9.21296123 1.35573217,9.21296123 C1.35102441,9.21296123 1.34396279,9.21296123 1.33925503,9.21296123 C1.29217751,9.21296123 1.24274612,9.21055261 1.1956686,9.208144 C0.908495725,9.19128367 0.739016652,9.10216483 0.644861611,9.02268046 L0.626030603,9.04917525 L1.73706008,10.6268196 C1.73706008,10.6268196 1.52050349,11.0362845 1.27334651,11.2265653 C1.16506821,11.3084583 1.04031278,11.4770615 0.932034485,11.6384389 C1.39810194,11.3156841 2.38437598,10.8965847 2.85985894,10.737616 C3.38948104,10.5690128 4.26983067,10.1739995 4.14507524,9.6537382 Z" id="Path"></path>
                <path d="M1.19802247,11.8624403 C1.21214573,11.857623 1.22862286,11.8503972 1.24274612,11.84558 C1.24980775,11.8431713 1.25686937,11.8407627 1.263931,11.8383541 C1.28276201,11.8335369 1.29923914,11.826311 1.31807015,11.8214938 C1.3227779,11.8190852 1.32748565,11.8190852 1.33219341,11.8166765 C1.35573217,11.8094507 1.37927093,11.8046335 1.40280969,11.7998162 C1.40987132,11.7974076 1.41693294,11.7974076 1.42399457,11.794999 C1.44282558,11.7901818 1.46165659,11.7877731 1.4804876,11.7853645 C1.4899031,11.7829559 1.49696473,11.7829559 1.50638023,11.7805473 C1.52521124,11.7781387 1.54404225,11.7733214 1.56522713,11.7709128 C1.57228876,11.7709128 1.57935039,11.7685042 1.58641202,11.7685042 C1.61230465,11.763687 1.64055116,11.7612784 1.6664438,11.7588697 C1.67350543,11.7588697 1.67821318,11.7588697 1.68527481,11.7564611 C1.70645969,11.7540525 1.72999845,11.7516439 1.75118334,11.7492353 C1.76059884,11.7492353 1.77001435,11.7468266 1.77942985,11.7468266 C1.80061473,11.744418 1.81944574,11.744418 1.84063063,11.7420094 C1.85004613,11.7420094 1.85946163,11.7420094 1.86887714,11.7396008 C1.89712365,11.7371922 1.92772404,11.7371922 1.95597055,11.7347836 L1.95597055,11.7347836 C1.98657094,11.7347836 2.01481745,11.7323749 2.04541784,11.7323749 C2.05483334,11.7323749 2.06424885,11.7323749 2.07366435,11.7323749 C2.09484923,11.7323749 2.11603412,11.7323749 2.137219,11.7323749 C2.14663451,11.7323749 2.15605001,11.7323749 2.16546552,11.7323749 C2.17252714,11.7323749 2.1772349,11.7323749 2.18429652,11.7323749 C2.20548141,11.7323749 2.22902017,11.7323749 2.25020505,11.7323749 C2.25255893,11.7323749 2.25726668,11.7323749 2.25962056,11.7323749 C2.28786707,11.7323749 2.3137597,11.7323749 2.34200622,11.7347836 C2.34671397,11.7347836 2.35142172,11.7347836 2.35612947,11.7347836 C2.38437598,11.7347836 2.4126225,11.7371922 2.44086901,11.7371922 C2.44557676,11.7371922 2.45263839,11.7371922 2.45734614,11.7371922 C2.51619304,11.7396008 2.57268607,11.7420094 2.62917909,11.744418 C2.63388684,11.744418 2.63859459,11.744418 2.64330235,11.744418 C2.67154886,11.7468266 2.69744149,11.7468266 2.72568801,11.7492353 C2.72804188,11.7492353 2.73274963,11.7492353 2.73510351,11.7492353 C2.76099615,11.7516439 2.78688878,11.7516439 2.81278142,11.7540525 C2.81513529,11.7540525 2.81748917,11.7540525 2.81984305,11.7540525 C2.84573568,11.7564611 2.87162832,11.7588697 2.89752096,11.7612784 C2.90222871,11.7612784 2.90693646,11.7612784 2.90929034,11.7612784 C2.93518297,11.763687 2.95872173,11.7660956 2.98226049,11.7685042 C2.98461437,11.7685042 2.98696824,11.7685042 2.98696824,11.7685042 C3.010507,11.7709128 3.03169189,11.7733214 3.05523065,11.7757301 C3.05758452,11.7757301 3.0599384,11.7757301 3.06464615,11.7757301 C3.08583104,11.7781387 3.1093698,11.7805473 3.1282008,11.7829559 C3.13290856,11.7829559 3.13526243,11.7829559 3.13997018,11.7853645 C3.18233995,11.7901818 3.22000197,11.794999 3.25531011,11.7974076 C3.25766399,11.7974076 3.26237174,11.7974076 3.26472561,11.7974076 C3.28120275,11.7998162 3.29767988,11.8022248 3.31415701,11.8022248 C3.31651089,11.8022248 3.31651089,11.8022248 3.31886476,11.8022248 C3.33298802,11.8046335 3.34711127,11.8046335 3.35888065,11.8070421 C3.36123453,11.8070421 3.36123453,11.8070421 3.36358841,11.8070421 C3.37771166,11.8094507 3.38948104,11.8094507 3.40125042,11.8118593 C3.4036043,11.8118593 3.4036043,11.8118593 3.40595817,11.8118593 C3.41772755,11.8142679 3.42714306,11.8142679 3.43420469,11.8166765 L3.43655856,11.8166765 C3.44362019,11.8166765 3.45068182,11.8190852 3.45774345,11.8190852 L3.45774345,11.8190852 C3.4624512,11.8190852 3.46715895,11.8214938 3.46951283,11.8214938 C3.4718667,11.8214938 3.4718667,11.8214938 3.47422058,11.8214938 C3.47657445,11.8214938 3.47657445,11.8214938 3.47657445,11.8214938 C3.42478918,11.7901818 3.37300391,11.7588697 3.32121864,11.7323749 C3.31651089,11.7299663 3.31180313,11.7275577 3.30474151,11.7227405 C3.25531011,11.6962457 3.20823259,11.6721595 3.15880119,11.650482 C3.15173956,11.6480733 3.14467794,11.6432561 3.13761631,11.6408475 C3.09053879,11.6191699 3.04346127,11.599901 2.99873762,11.5806321 C2.991676,11.5782234 2.98226049,11.5734062 2.97519886,11.5709976 C2.92812134,11.5541373 2.8833977,11.5372769 2.83867405,11.5228252 C2.83161243,11.5204166 2.8245508,11.518008 2.81748917,11.5155994 C2.77041165,11.5011477 2.72568801,11.4891046 2.68096436,11.4770615 C2.67625661,11.4770615 2.67154886,11.4746529 2.66684111,11.4746529 C2.61976359,11.4626098 2.57268607,11.455384 2.52560855,11.4457495 L2.52560855,11.4457495 C2.47853102,11.4385236 2.43380738,11.4337064 2.38908374,11.4288892 C2.38437598,11.4288892 2.37966823,11.4288892 2.37731436,11.4264805 C2.33494459,11.4240719 2.29257482,11.4216633 2.25020505,11.4216633 C2.24314342,11.4216633 2.2360818,11.4216633 2.22666629,11.4216633 C2.21018916,11.4216633 2.1960659,11.4216633 2.17958877,11.4216633 C2.16781939,11.4216633 2.15840389,11.4216633 2.14663451,11.4240719 C2.13015738,11.4240719 2.11368024,11.4264805 2.09955699,11.4264805 C2.09014148,11.4264805 2.0783721,11.4288892 2.0689566,11.4288892 C2.05247947,11.4312978 2.03364846,11.4337064 2.01717133,11.436115 C2.0101097,11.436115 2.00069419,11.4385236 1.99363257,11.4385236 C1.96773993,11.4433409 1.94420117,11.4457495 1.91830853,11.4505667 C1.91595466,11.4505667 1.91360078,11.4505667 1.91124691,11.4529753 C1.89006202,11.4577926 1.86652326,11.4626098 1.84533838,11.467427 C1.83592287,11.4698357 1.82886125,11.4722443 1.81944574,11.4746529 C1.80296861,11.4794701 1.78884535,11.4842874 1.77236822,11.486696 C1.76295272,11.4891046 1.75353721,11.4939218 1.74412171,11.4963304 C1.72999845,11.5011477 1.7158752,11.5059649 1.70175194,11.5107821 C1.69233644,11.5131908 1.68292093,11.518008 1.67115155,11.5228252 C1.6570283,11.5276425 1.64525892,11.5324597 1.63113566,11.5372769 C1.62172016,11.5420942 1.61230465,11.5445028 1.60053527,11.54932 C1.58876589,11.5541373 1.57464264,11.5613631 1.56287326,11.5661803 C1.55345775,11.5709976 1.54404225,11.5758148 1.53462674,11.5806321 C1.52285736,11.5878579 1.51108798,11.5926751 1.4993186,11.599901 C1.4899031,11.6047182 1.4804876,11.6095355 1.47107209,11.6143527 C1.45930271,11.6215785 1.44753333,11.6288044 1.43576395,11.6336216 C1.42634845,11.6384389 1.41693294,11.6456647 1.40751744,11.650482 C1.39574806,11.6577078 1.38397868,11.6649337 1.3722093,11.6721595 C1.3627938,11.6769767 1.35337829,11.6842026 1.34631666,11.6890198 C1.33454728,11.6962457 1.3227779,11.7058802 1.31100852,11.713106 C1.30159302,11.7203319 1.29453139,11.7251491 1.28511589,11.7323749 C1.27334651,11.7420094 1.26157713,11.7516439 1.24980775,11.7588697 C1.24274612,11.7660956 1.23568449,11.7709128 1.22626899,11.7781387 C1.21449961,11.7877731 1.20037635,11.7998162 1.18860697,11.8094507 C1.18154534,11.8142679 1.17683759,11.8190852 1.16977596,11.826311 C1.15094495,11.8431713 1.13446782,11.8600317 1.11563681,11.876892 C1.13446782,11.8672575 1.15329883,11.8600317 1.17448371,11.8503972 C1.18625309,11.8648489 1.19331472,11.8648489 1.19802247,11.8624403 Z" id="Path"></path>
            </g>
            <g id="noun_Moai_56677" transform="translate(26.250000, 0.000000)">
                <path d="M14.9175386,24.1157902 C14.1760677,22.2038833 12.7425572,22.4716859 12.7425572,22.4716859 L11.8669153,20.2275682 C11.245492,20.6885954 9.76608095,21.7157369 7.79235592,22.647961 C5.99870239,23.4954375 3.38943083,23.6412034 1.7440715,23.6344236 L2.33018663,25.8005734 C2.33018663,25.8005734 1.86764999,26.5124537 0.709542993,30.065075 C8.02185883,37.9737253 15.7472799,28.553177 15.7472799,28.553177 C15.7472799,28.553177 15.6590095,26.0243072 14.9175386,24.1157902 Z" id="Path"></path>
                <path d="M7.79235592,22.2038833 C9.76608095,21.2716592 11.245492,20.2445177 11.8669153,19.7834905 C12.0752333,19.6275549 12.1882194,19.5394173 12.1882194,19.5394173 C12.1882194,19.5394173 12.6048554,17.9393818 12.1882194,15.9393373 C12.1882194,15.9393373 13.3922269,16.6071488 13.9006642,13.5833527 C14.4091014,10.5629466 15.6590095,1.05426072 13.5758293,1.36613206 C13.1591932,-0.766118722 7.60522277,-0.186444822 6.07991112,1.90173718 C5.35962506,2.88480988 4.86531109,3.67126804 4.54753783,4.2272126 C5.78332274,3.82042389 8.29373151,3.34244717 9.34238327,3.34244717 C10.7970786,3.34244717 12.2870822,5.48147776 12.4530304,5.72555098 L12.7037182,6.09505072 L12.2764897,6.25098639 L8.8975007,7.49508184 L8.46674139,7.65440741 L8.39965593,7.21710956 C8.39965593,7.21371965 8.32903965,6.78659151 8.15602976,6.1967479 C7.99361231,5.65436296 7.32275765,5.59673456 7.04382334,5.59673456 L7.04382334,5.59673456 C6.96261462,5.59673456 6.87787508,5.60012447 6.79313555,5.61029418 C6.44005415,5.64419324 6.09403437,6.58658707 5.91043204,7.09168304 C5.75507623,7.51542127 5.63149774,7.84763205 5.46554948,8.03746677 C5.25723145,8.27476018 4.92886575,8.42391604 4.48751399,8.48154444 L4.13796341,8.52561322 L1.19679533,12.4138352 L1.21091858,12.4240049 C1.30271975,12.495193 1.48632208,12.5867204 1.82881104,12.60367 C1.89942732,12.6070599 1.97357441,12.6104498 2.04772151,12.6104498 C2.5490971,12.6104498 3.11402734,12.5257021 3.6577727,12.4443444 C3.89433724,12.4104453 4.13443259,12.3731564 4.37452794,12.3426472 L4.41689771,12.3358674 L4.45926748,12.3392573 C4.47692155,12.3426472 4.90768086,12.3833261 5.36668668,12.5223122 C6.06578786,12.7358763 6.47536229,13.0646971 6.58481752,13.4952152 C6.66955706,13.827426 6.6060024,14.3257421 5.83628495,14.8240583 C5.35256343,15.1359296 4.7417326,15.3494937 4.42042853,15.4511909 C4.19798724,15.518989 3.91199131,15.6206862 3.60481049,15.7393329 C4.19445643,15.7834016 4.80528726,15.9834061 5.42317971,16.3393462 L6.98733032,17.2444511 L5.17955354,16.993598 C5.1689611,16.993598 4.22270294,16.8613917 3.28350641,16.8613917 C2.43964186,16.8613917 2.03712906,16.9630889 1.84999592,17.0512264 L1.2391651,17.3291987 L1.27447324,17.3969968 C1.27447324,17.3969968 1.22857265,19.8411189 0.720135435,20.9970768 C0.211698217,22.1530347 -0.25083842,23.0852588 0.257598799,23.1293276 C0.420016244,23.1428872 0.981415673,23.1801762 1.75466394,23.1835661 C3.38943083,23.1971257 5.99870239,23.0513598 7.79235592,22.2038833 Z" id="Path"></path>
                <path d="M5.17602273,7.81034308 C5.5467582,7.38660485 5.87159309,5.34588153 6.75076578,5.25435407 C6.80372799,5.24757426 6.85315939,5.24418435 6.9061216,5.24418435 C6.92377567,5.24418435 6.93789892,5.24418435 6.95555299,5.24418435 C6.9837995,5.24418435 7.01204602,5.24079445 7.04029253,5.24079445 C7.04735416,5.24079445 7.05088497,5.24079445 7.0579466,5.24079445 C7.07560067,5.24079445 7.09325474,5.24079445 7.11443962,5.24079445 C7.14621695,5.24079445 7.17446346,5.24418435 7.20624079,5.24418435 C7.22389486,5.24418435 7.24507974,5.24757426 7.26273381,5.24757426 C7.29098032,5.25096416 7.31922684,5.25435407 7.34747335,5.25774397 C7.36512742,5.26113388 7.3863123,5.26113388 7.40396637,5.26452379 C7.43221289,5.26791369 7.45692858,5.2746935 7.4851751,5.27808341 C7.50282917,5.28147332 7.52048324,5.28486322 7.53813731,5.28825313 C7.56638382,5.29503294 7.59109952,5.30181275 7.61581521,5.30859256 C7.63346928,5.31198247 7.64759254,5.31537237 7.66524661,5.32215219 C7.69349312,5.328932 7.71820882,5.33910172 7.74645533,5.34927143 C7.76057859,5.35266134 7.77117103,5.35944115 7.78529429,5.36283106 C7.82060243,5.37639068 7.85591057,5.3899503 7.89121871,5.40689983 C7.89474952,5.40689983 7.89474952,5.41028974 7.89828034,5.41028974 C7.93358848,5.42723927 7.96889662,5.4475787 8.00420476,5.46452823 C8.0147972,5.47130804 8.02538964,5.47808786 8.03245127,5.48147776 C8.05716697,5.49503738 8.07835185,5.50859701 8.09953673,5.52554654 C8.11012918,5.53232635 8.12072162,5.54249607 8.13484488,5.55266578 C8.15249895,5.56622541 8.17368383,5.58317494 8.1913379,5.59673456 C8.20193034,5.60690428 8.21252278,5.617074 8.22311523,5.62724371 C8.2407693,5.64419324 8.25489255,5.65775287 8.26901581,5.67470239 C8.27960825,5.68487211 8.29020069,5.69843174 8.30079313,5.70860145 C8.31491639,5.72555098 8.32903965,5.74250051 8.3431629,5.75945004 C8.35375534,5.77300966 8.36081697,5.78317938 8.37140941,5.79673901 C8.38553267,5.81368853 8.39612511,5.83402797 8.40671755,5.8543674 C8.41377918,5.86792703 8.42084081,5.87809675 8.42790244,5.89165637 C8.43849488,5.9119958 8.44908732,5.93572515 8.45967976,5.95945449 C8.46321058,5.9696242 8.47027221,5.97979392 8.47380302,5.99335354 C8.48792628,6.0272526 8.50204953,6.06454157 8.51264198,6.10183053 C8.6962443,6.7221833 8.76686058,7.16965087 8.76686058,7.16965087 L12.1458496,5.92555543 C12.1458496,5.92555543 10.6417228,3.7051671 9.34591408,3.7051671 C8.20193034,3.7051671 5.17955354,4.31196024 4.28272678,4.71196913 C4.11677852,5.02723038 4.04616224,5.19333576 4.04616224,5.19333576 C4.04616224,5.19333576 3.62952619,5.59334465 3.95436108,6.52556876 C4.27919597,7.45779287 4.50869888,8.03746677 4.50869888,8.03746677 L4.43455178,8.13577404 C4.69936283,8.09509517 5.00301284,8.01034753 5.17602273,7.81034308 Z" id="Path"></path>
                <path d="M6.21761286,13.5867427 C6.03401053,12.854523 4.4133669,12.6985873 4.4133669,12.6985873 C4.32156573,12.708757 4.22623376,12.7223167 4.13090178,12.7358763 C4.12030934,12.7358763 4.10971689,12.7392662 4.09912445,12.7392662 C4.00732329,12.7528258 3.91552212,12.7663854 3.82372096,12.7799451 C3.73191979,12.7935047 3.63658782,12.8070643 3.54478665,12.8206239 C3.52713258,12.8240138 3.50947851,12.8274037 3.49182444,12.8274037 C3.40002328,12.8409634 3.31175293,12.854523 3.21995176,12.8680826 C3.20935932,12.8680826 3.19876688,12.8714725 3.18464362,12.8714725 C3.09284246,12.8850321 2.99751048,12.8952019 2.90570931,12.9087615 C2.9021785,12.9087615 2.9021785,12.9087615 2.89864769,12.9087615 C2.80684652,12.9189312 2.71857617,12.9291009 2.63030582,12.9358807 C2.61971338,12.9358807 2.60912094,12.9392706 2.60205931,12.9392706 C2.51731977,12.9460504 2.42904942,12.9528303 2.34430988,12.9562202 C2.33018663,12.9562202 2.31606337,12.9562202 2.30194012,12.9596101 C2.21720058,12.963 2.13599186,12.9663899 2.05478313,12.9663899 C2.04772151,12.9663899 2.04065988,12.9663899 2.03359825,12.9663899 C2.02653662,12.9663899 2.01594418,12.9663899 2.00888255,12.9663899 C1.93826627,12.9663899 1.86411918,12.963 1.7935029,12.9596101 C1.36274359,12.9358807 1.10852498,12.8104542 0.967292417,12.6985873 L0.939045905,12.7358763 L2.60559012,14.9562646 C2.60559012,14.9562646 2.28075523,15.5325486 1.91001976,15.8003512 C1.74760231,15.915608 1.56046917,16.1529014 1.39805173,16.3800251 C2.0971529,15.9257777 3.57656398,15.3359341 4.28978841,15.1122003 C5.08422156,14.8749069 6.40474601,14.3189623 6.21761286,13.5867427 Z" id="Path"></path>
                <path d="M1.79703371,16.6952863 C1.8182186,16.6885065 1.84293429,16.6783368 1.86411918,16.671557 C1.87471162,16.6681671 1.88530406,16.6647772 1.8958965,16.6613873 C1.92414302,16.6546074 1.94885871,16.6444377 1.97710523,16.6376579 C1.98416685,16.634268 1.99122848,16.634268 1.99829011,16.6308781 C2.03359825,16.6207084 2.06890639,16.6139286 2.10421453,16.6071488 C2.11480697,16.6037589 2.12539941,16.6037589 2.13599186,16.600369 C2.16423837,16.5935891 2.19248488,16.5901992 2.22073139,16.5868093 C2.23485465,16.5834194 2.24544709,16.5834194 2.25957035,16.5800295 C2.28781686,16.5766396 2.31606337,16.5698598 2.3478407,16.5664699 C2.35843314,16.5664699 2.36902558,16.56308 2.37961802,16.56308 C2.41845698,16.5563002 2.46082675,16.5529103 2.4996657,16.5495204 C2.51025814,16.5495204 2.51731977,16.5495204 2.52791221,16.5461305 C2.55968954,16.5427406 2.59499768,16.5393506 2.62677501,16.5359607 C2.64089826,16.5359607 2.65502152,16.5325708 2.66914477,16.5325708 C2.7009221,16.5291809 2.72916861,16.5291809 2.76094594,16.525791 C2.77506919,16.525791 2.78919245,16.525791 2.80331571,16.5224011 C2.84568547,16.5190112 2.89158606,16.5190112 2.93395583,16.5156213 L2.93395583,16.5156213 C2.97985641,16.5156213 3.02222618,16.5122314 3.06812676,16.5122314 C3.08225001,16.5122314 3.09637327,16.5122314 3.11049653,16.5122314 C3.14227385,16.5122314 3.17405118,16.5122314 3.2058285,16.5122314 C3.21995176,16.5122314 3.23407502,16.5122314 3.24819827,16.5122314 C3.25879072,16.5122314 3.26585234,16.5122314 3.27644479,16.5122314 C3.30822211,16.5122314 3.34353025,16.5122314 3.37530758,16.5122314 C3.37883839,16.5122314 3.38590002,16.5122314 3.38943083,16.5122314 C3.4318006,16.5122314 3.47063956,16.5122314 3.51300932,16.5156213 C3.52007095,16.5156213 3.52713258,16.5156213 3.53419421,16.5156213 C3.57656398,16.5156213 3.61893374,16.5190112 3.66130351,16.5190112 C3.66836514,16.5190112 3.67895758,16.5190112 3.68601921,16.5190112 C3.77428956,16.5224011 3.8590291,16.525791 3.94376863,16.5291809 C3.95083026,16.5291809 3.95789189,16.5291809 3.96495352,16.5291809 C4.00732329,16.5325708 4.04616224,16.5325708 4.08853201,16.5359607 C4.09206282,16.5359607 4.09912445,16.5359607 4.10265527,16.5359607 C4.14149422,16.5393506 4.18033317,16.5393506 4.21917213,16.5427406 C4.22270294,16.5427406 4.22623376,16.5427406 4.22976457,16.5427406 C4.26860352,16.5461305 4.30744248,16.5495204 4.34628143,16.5529103 C4.35334306,16.5529103 4.36040469,16.5529103 4.3639355,16.5529103 C4.40277446,16.5563002 4.4380826,16.5596901 4.47339074,16.56308 C4.47692155,16.56308 4.48045237,16.56308 4.48045237,16.56308 C4.51576051,16.5664699 4.54753783,16.5698598 4.58284597,16.5732497 C4.58637679,16.5732497 4.5899076,16.5732497 4.59696923,16.5732497 C4.62874655,16.5766396 4.66405469,16.5800295 4.69230121,16.5834194 C4.69936283,16.5834194 4.70289365,16.5834194 4.70995528,16.5868093 C4.77350993,16.5935891 4.83000295,16.600369 4.88296516,16.6037589 C4.88649598,16.6037589 4.89355761,16.6037589 4.89708842,16.6037589 C4.92180412,16.6071488 4.94651982,16.6105387 4.97123551,16.6105387 C4.97476633,16.6105387 4.97476633,16.6105387 4.97829714,16.6105387 C4.99948203,16.6139286 5.02066691,16.6139286 5.03832098,16.6173185 C5.04185179,16.6173185 5.04185179,16.6173185 5.04538261,16.6173185 C5.06656749,16.6207084 5.08422156,16.6207084 5.10187563,16.6240983 C5.10540645,16.6240983 5.10540645,16.6240983 5.10893726,16.6240983 C5.12659133,16.6274882 5.14071459,16.6274882 5.15130703,16.6308781 L5.15483784,16.6308781 C5.16543029,16.6308781 5.17602273,16.634268 5.18661517,16.634268 L5.18661517,16.634268 C5.1936768,16.634268 5.20073843,16.6376579 5.20426924,16.6376579 C5.20780005,16.6376579 5.20780005,16.6376579 5.21133087,16.6376579 C5.21486168,16.6376579 5.21486168,16.6376579 5.21486168,16.6376579 C5.13718377,16.5935891 5.05950586,16.5495204 4.98182796,16.5122314 C4.97476633,16.5088415 4.9677047,16.5054516 4.95711226,16.4986718 C4.88296516,16.4613828 4.81234888,16.4274838 4.73820179,16.3969746 C4.72760935,16.3935847 4.7170169,16.3868049 4.70642446,16.383415 C4.63580818,16.3529058 4.5651919,16.3257866 4.49810644,16.2986673 C4.48751399,16.2952774 4.47339074,16.2884976 4.4627983,16.2851077 C4.39218202,16.2613784 4.32509655,16.237649 4.25801108,16.2173096 C4.24741864,16.2139197 4.2368262,16.2105298 4.22623376,16.2071399 C4.15561748,16.1868004 4.08853201,16.1698509 4.02144654,16.1529014 C4.01438492,16.1529014 4.00732329,16.1495115 4.00026166,16.1495115 C3.92964538,16.1325619 3.8590291,16.1223922 3.78841282,16.1088326 L3.78841282,16.1088326 C3.71779654,16.0986629 3.65071107,16.0918831 3.5836256,16.0851033 C3.57656398,16.0851033 3.56950235,16.0851033 3.56597153,16.0817134 C3.50241688,16.0783235 3.43886223,16.0749335 3.37530758,16.0749335 C3.36471514,16.0749335 3.35412269,16.0749335 3.33999944,16.0749335 C3.31528374,16.0749335 3.29409886,16.0749335 3.26938316,16.0749335 C3.25172909,16.0749335 3.23760583,16.0749335 3.21995176,16.0783235 C3.19523606,16.0783235 3.17052036,16.0817134 3.14933548,16.0817134 C3.13521222,16.0817134 3.11755815,16.0851033 3.1034349,16.0851033 C3.0787192,16.0884932 3.05047269,16.0918831 3.02575699,16.095273 C3.01516455,16.095273 3.00104129,16.0986629 2.99044885,16.0986629 C2.9516099,16.1054427 2.91630176,16.1088326 2.8774628,16.1156124 C2.87393199,16.1156124 2.87040117,16.1156124 2.86687036,16.1190023 C2.83509303,16.1257821 2.79978489,16.1325619 2.76800757,16.1393418 C2.75388431,16.1427317 2.74329187,16.1461216 2.72916861,16.1495115 C2.70445291,16.1562913 2.68326803,16.1630711 2.65855233,16.166461 C2.64442908,16.1698509 2.63030582,16.1766307 2.61618256,16.1800206 C2.59499768,16.1868004 2.5738128,16.1935803 2.55262791,16.2003601 C2.53850466,16.20375 2.5243814,16.2105298 2.50672733,16.2173096 C2.48554244,16.2240894 2.46788837,16.2308692 2.44670349,16.237649 C2.43258023,16.2444288 2.41845698,16.2478187 2.40080291,16.2545986 C2.38314884,16.2613784 2.36196395,16.2715481 2.34430988,16.2783279 C2.33018663,16.2851077 2.31606337,16.2918875 2.30194012,16.2986673 C2.28428605,16.308837 2.26663198,16.3156169 2.24897791,16.3257866 C2.23485465,16.3325664 2.22073139,16.3393462 2.20660814,16.346126 C2.18895407,16.3562957 2.1713,16.3664654 2.15364593,16.3732453 C2.13952267,16.3800251 2.12539941,16.3901948 2.11127616,16.3969746 C2.09362209,16.4071443 2.07596802,16.417314 2.05831395,16.4274838 C2.04419069,16.4342636 2.03006744,16.4444333 2.01947499,16.4512131 C2.00182092,16.4613828 1.98416685,16.4749424 1.96651278,16.4851122 C1.95238953,16.4952819 1.94179709,16.5020617 1.92767383,16.5122314 C1.91001976,16.525791 1.89236569,16.5393506 1.87471162,16.5495204 C1.86411918,16.5596901 1.85352674,16.5664699 1.83940348,16.5766396 C1.82174941,16.5901992 1.80056453,16.6071488 1.78291046,16.6207084 C1.77231801,16.6274882 1.76525639,16.634268 1.75466394,16.6444377 C1.72641743,16.6681671 1.70170173,16.6918964 1.67345522,16.7156258 C1.70170173,16.7020661 1.72994824,16.6918964 1.76172557,16.6783368 C1.77937964,16.6986762 1.78997208,16.6986762 1.79703371,16.6952863 Z" id="Path"></path>
            </g>
        </g>
    </g>
</svg>