<?xml version="1.0" encoding="UTF-8"?>
<svg width="48px" height="48px" viewBox="0 0 48 48" version="1.1" xmlns="http://www.w3.org/2000/svg" xmlns:xlink="http://www.w3.org/1999/xlink">
    <!-- Generator: Sketch 55.2 (78181) - https://sketchapp.com -->
    <title>Icon/48/Mountain</title>
    <desc>Created with Sketch.</desc>
    <defs>
        <path d="M0,34.9292553 L6.35200126,29.0982072 L11.2541177,22.8545967 L12.2169136,24.0581752 L16.6815548,19.3191006 L18.6074384,19.8457759 L24.5596123,13 L29.5492822,20.3722004 L30.8625837,19.1686219 L36.8150495,24.2086539 L40.2290495,27.969868 L48,34.9292553 L25.7083133,34.9292553 C26.4242085,32.126841 27.6671754,28.4955402 27.6671754,28.4955402 L30.2056411,26.6150585 L30.4683014,22.4776477 L30.862,19.8635825 L27.2728931,23.3423984 L25.2159712,22.5150166 L19.3948356,27.4421895 L22.5896602,21.8004937 L21.6268643,21.1985791 C21.6268643,21.1985791 22.4586219,19.2426073 22.5458835,19.0171401 C22.6334369,18.7914221 24.7925045,13.8820558 24.4717671,13.6761508 C24.1510297,13.469995 18.431456,21.0854693 18.431456,21.0854693 L16.8117176,20.1823465 L12.2160381,24.9966605 L11.0340668,24.0188 C11.0340668,24.0188 7.8824352,29.0588319 7.66355163,29.2090598 C7.4449599,29.3597893 3.33053243,33.1962427 2.93683385,33.6098083 C2.78215612,33.7720744 2.20430349,34.3213215 1.55874288,34.9292553 L0,34.9292553" id="path-1"></path>
    </defs>
    <g id="Icon/48/Mountain" stroke="none" stroke-width="1" fill="none" fill-rule="evenodd">
        <mask id="mask-2" fill="white">
            <use xlink:href="#path-1"></use>
        </mask>
        <use id="Mask" fill="#FFFFFF" xlink:href="#path-1"></use>
        <g id="Color/White" mask="url(#mask-2)" fill="#FFFFFF">
            <rect id="Rectangle" x="0" y="0" width="48" height="48"></rect>
        </g>
    </g>
</svg>