<?xml version="1.0" encoding="UTF-8"?>
<svg width="24px" height="18px" viewBox="0 0 24 18" version="1.1" xmlns="http://www.w3.org/2000/svg" xmlns:xlink="http://www.w3.org/1999/xlink">
    <!-- Generator: Sketch 55.2 (78181) - https://sketchapp.com -->
    <title>Icon/48</title>
    <desc>Created with Sketch.</desc>
    <defs>
        <path d="M24,2.07692308 L24,8.30769231 L21.8901099,8.30769231 L21.8901099,2.07692308 L9.23076923,2.07692308 L9.23076923,0 L24,0 L24,2.07692308 Z M20.3076923,5.74358972 L20.3076923,12.9230769 L18.2153846,12.9230769 L18.2153846,5.74358972 L4.61538462,5.74358972 L4.61538462,3.69230769 L20.3076923,3.69230769 L20.3076923,5.74358972 Z M0,7.38461538 L16.6153846,7.38461538 L16.6153846,17.5384615 L0,17.5384615 L0,7.38461538 Z" id="path-1"></path>
    </defs>
    <g id="Page-1" stroke="none" stroke-width="1" fill="none" fill-rule="evenodd">
        <g id="Mindlessly---Start" transform="translate(-1388.000000, -657.000000)">
            <g id="Icon/48" transform="translate(1376.000000, 642.000000)">
                <circle id="Oval" fill-opacity="0" fill="#000000" cx="24" cy="24" r="24"></circle>
                <g id="Icon/Scenes" transform="translate(12.000000, 12.000000)" stroke-width="1">
                    <g id="Color/Black" transform="translate(0.000000, 3.000000)">
                        <mask id="mask-2" fill="white">
                            <use xlink:href="#path-1"></use>
                        </mask>
                        <use id="Mask" fill="#000000" fill-rule="nonzero" xlink:href="#path-1"></use>
                        <g id="Color/White" mask="url(#mask-2)" fill="#FFFFFF">
                            <g transform="translate(0.000000, -3.000000)" id="Rectangle">
                                <rect x="0" y="0" width="24" height="24"></rect>
                            </g>
                        </g>
                    </g>
                </g>
            </g>
        </g>
    </g>
</svg> 