<?xml version="1.0" encoding="UTF-8"?>
<svg width="130px" height="130px" viewBox="0 0 130 130" version="1.1" xmlns="http://www.w3.org/2000/svg" xmlns:xlink="http://www.w3.org/1999/xlink">
    <!-- Generator: Sketch 53 (72520) - https://sketchapp.com -->
    <title>Group 4</title>
    <desc>Created with Sketch.</desc>
    <g id="Page-1" stroke="none" stroke-width="1" fill="none" fill-rule="evenodd">
        <g id="Mindlessly---Playing" transform="translate(-655.000000, -272.000000)">
            <g id="Group-4" transform="translate(656.000000, 273.000000)">
                <circle id="Oval" stroke="#FFFFFF" stroke-width="2" fill-opacity="0.2" fill="#000000" cx="64" cy="64" r="64"></circle>
                <path d="M56,77.75 C58.2,77.75 60,75.9660714 60,73.7857143 L60,53.9642857 C60,51.7839286 58.2,50 56,50 C53.8,50 52,51.7839286 52,53.9642857 L52,73.7857143 C52,75.9660714 53.8,77.75 56,77.75 Z M68,53.9642857 L68,73.7857143 C68,75.9660714 69.8,77.75 72,77.75 C74.2,77.75 76,75.9660714 76,73.7857143 L76,53.9642857 C76,51.7839286 74.2,50 72,50 C69.8,50 68,51.7839286 68,53.9642857 Z" id="Shape" fill="#FFFFFF" fill-rule="nonzero"></path>
            </g>
        </g>
    </g>
</svg>